# xmcd
#
# Track frame offsets: 
#        150
#        12052
#        31234
#        49231
#        61008
#        76811
#        89075
#        110500
#
# Disc length: 1687 seconds
#
# Revision: 0
# Processed by: cddbd v1.5.2PL0 Copyright (c) Steve Scherf et al.
# Submitted via: ExactAudioCopy v1.3
#
DISCID=58069508
DTITLE=Josh Lief - Love in Disguise
DYEAR=2018
DGENRE=Blues Rock
TTITLE0=Love In Disguise
TTITLE1=James River Blues
TTITLE2=Your Drinking Ways
TTITLE3=Christine
TTITLE4=All I Ever Need
TTITLE5=Edith Keeler Must Die
TTITLE6=Deep Water Blues
TTITLE7=Let Go
EXTD=
EXTT0=
EXTT1=
EXTT2=
EXTT3=
EXTT4=
EXTT5=
EXTT6=
EXTT7=
PLAYORDER=
